# xmcd
#
# Track frame offsets:
#	150
#	18729
#	33672
#	54286
#	68900
#	81899
#	97610
#	107990
#	130221
#	150871
#	162853
#
# Disc length: 2472 seconds
#
# Revision: 1
# Processed by: cddbd v1.5.1PL0 Copyright (c) Steve Scherf et al.
# Submitted via: audiograbber 1.83.01
#
DISCID=8009a60b
DTITLE=William Hut - Days to remember
DYEAR=2005
DGENRE=Country
TTITLE0=Hometown
TTITLE1=Springtime Blues
TTITLE2=By the Seaside
TTITLE3=Days to Remember
TTITLE4=Don't let go
TTITLE5=The Log Train
TTITLE6=Daydream Fight
TTITLE7=Half way Through Silence
TTITLE8=Faded Highway
TTITLE9=Lord be My Witness
TTITLE10=I'm Dying to See You Again
EXTD=A real masterpiece!
EXTT0=
EXTT1=
EXTT2=
EXTT3=
EXTT4=
EXTT5=
EXTT6=
EXTT7=
EXTT8=
EXTT9=
EXTT10=
PLAYORDER=
